<mxfile host="app.diagrams.net" modified="2022-02-27T03:06:39.718Z" agent="5.0 (Macintosh; Intel Mac OS X 10_15_7) AppleWebKit/537.36 (KHTML, like Gecko) Chrome/98.0.4758.109 Safari/537.36" etag="zX2GmaQMyMHoBkFoKBEN" version="16.6.1" type="github">
  <diagram id="IBnBYFg3yGxrzy1YlH7D" name="Page-1">
    <mxGraphModel dx="1035" dy="481" grid="1" gridSize="10" guides="1" tooltips="1" connect="1" arrows="1" fold="1" page="1" pageScale="1" pageWidth="827" pageHeight="1169" math="0" shadow="0">
      <root>
        <mxCell id="0" />
        <mxCell id="1" parent="0" />
        <mxCell id="gff2hpIQ6-8qm_smWflZ-55" value="" style="rounded=0;whiteSpace=wrap;html=1;fillColor=#FFFFFF;" parent="1" vertex="1">
          <mxGeometry x="1139.16" y="615" width="1101.68" height="550" as="geometry" />
        </mxCell>
        <mxCell id="FFstnjiT_gx-RpRVAEiZ-91" style="edgeStyle=orthogonalEdgeStyle;rounded=0;orthogonalLoop=1;jettySize=auto;html=1;entryX=1;entryY=0;entryDx=0;entryDy=322.5;entryPerimeter=0;" edge="1" parent="1" source="FFstnjiT_gx-RpRVAEiZ-89" target="FFstnjiT_gx-RpRVAEiZ-54">
          <mxGeometry relative="1" as="geometry" />
        </mxCell>
        <mxCell id="FFstnjiT_gx-RpRVAEiZ-89" value="" style="rounded=1;whiteSpace=wrap;html=1;fillColor=#FFF4C3;" vertex="1" parent="1">
          <mxGeometry x="1920" y="945" width="202.5" height="95.72" as="geometry" />
        </mxCell>
        <mxCell id="FFstnjiT_gx-RpRVAEiZ-90" style="edgeStyle=orthogonalEdgeStyle;rounded=0;orthogonalLoop=1;jettySize=auto;html=1;" edge="1" parent="1" source="FFstnjiT_gx-RpRVAEiZ-88" target="FFstnjiT_gx-RpRVAEiZ-74">
          <mxGeometry relative="1" as="geometry" />
        </mxCell>
        <mxCell id="FFstnjiT_gx-RpRVAEiZ-88" value="" style="rounded=1;whiteSpace=wrap;html=1;fillColor=#FFF4C3;" vertex="1" parent="1">
          <mxGeometry x="1917.5" y="710.71" width="205" height="90" as="geometry" />
        </mxCell>
        <mxCell id="gff2hpIQ6-8qm_smWflZ-57" style="edgeStyle=orthogonalEdgeStyle;rounded=0;orthogonalLoop=1;jettySize=auto;html=1;" parent="1" source="gff2hpIQ6-8qm_smWflZ-1" target="gff2hpIQ6-8qm_smWflZ-2" edge="1">
          <mxGeometry relative="1" as="geometry" />
        </mxCell>
        <mxCell id="gff2hpIQ6-8qm_smWflZ-1" value="" style="aspect=fixed;perimeter=ellipsePerimeter;html=1;align=center;shadow=0;dashed=0;spacingTop=3;image;image=img/lib/active_directory/generic_server.svg;" parent="1" vertex="1">
          <mxGeometry x="210" y="50" width="30" height="53.57" as="geometry" />
        </mxCell>
        <mxCell id="gff2hpIQ6-8qm_smWflZ-2" value="" style="rounded=0;whiteSpace=wrap;html=1;fillColor=#FFFBF5;" parent="1" vertex="1">
          <mxGeometry x="280" y="120" width="80" height="360" as="geometry" />
        </mxCell>
        <mxCell id="gff2hpIQ6-8qm_smWflZ-3" value="Topic-A-01" style="rounded=1;whiteSpace=wrap;html=1;fillColor=#FF9999;" parent="1" vertex="1">
          <mxGeometry x="285" y="450" width="70" height="20" as="geometry" />
        </mxCell>
        <mxCell id="gff2hpIQ6-8qm_smWflZ-4" value="Topic-B-01" style="rounded=1;whiteSpace=wrap;html=1;fillColor=#FF9999;" parent="1" vertex="1">
          <mxGeometry x="285" y="420" width="70" height="20" as="geometry" />
        </mxCell>
        <mxCell id="gff2hpIQ6-8qm_smWflZ-5" value="Topic-C-01" style="rounded=1;whiteSpace=wrap;html=1;fillColor=#FF9999;" parent="1" vertex="1">
          <mxGeometry x="285" y="390" width="70" height="20" as="geometry" />
        </mxCell>
        <mxCell id="gff2hpIQ6-8qm_smWflZ-6" value="Topic-A-02" style="rounded=1;whiteSpace=wrap;html=1;fillColor=#FF9999;" parent="1" vertex="1">
          <mxGeometry x="285" y="360" width="70" height="20" as="geometry" />
        </mxCell>
        <mxCell id="gff2hpIQ6-8qm_smWflZ-7" value="Topic-B-02" style="rounded=1;whiteSpace=wrap;html=1;fillColor=#FF9999;" parent="1" vertex="1">
          <mxGeometry x="285" y="330" width="70" height="20" as="geometry" />
        </mxCell>
        <mxCell id="gff2hpIQ6-8qm_smWflZ-8" value="Topic-C-02" style="rounded=1;whiteSpace=wrap;html=1;fillColor=#FF9999;" parent="1" vertex="1">
          <mxGeometry x="285" y="300" width="70" height="20" as="geometry" />
        </mxCell>
        <mxCell id="gff2hpIQ6-8qm_smWflZ-9" value="Topic-C-03" style="rounded=1;whiteSpace=wrap;html=1;fillColor=#FF9999;" parent="1" vertex="1">
          <mxGeometry x="285" y="270" width="70" height="20" as="geometry" />
        </mxCell>
        <mxCell id="gff2hpIQ6-8qm_smWflZ-10" value="Topic-A-03" style="rounded=1;whiteSpace=wrap;html=1;fillColor=#FF9999;" parent="1" vertex="1">
          <mxGeometry x="285" y="240" width="70" height="20" as="geometry" />
        </mxCell>
        <mxCell id="gff2hpIQ6-8qm_smWflZ-11" value="Topic-A-04" style="rounded=1;whiteSpace=wrap;html=1;fillColor=#FF9999;" parent="1" vertex="1">
          <mxGeometry x="285" y="210" width="70" height="20" as="geometry" />
        </mxCell>
        <mxCell id="gff2hpIQ6-8qm_smWflZ-12" value="Topic-A-05" style="rounded=1;whiteSpace=wrap;html=1;fillColor=#FF9999;" parent="1" vertex="1">
          <mxGeometry x="285" y="180" width="70" height="20" as="geometry" />
        </mxCell>
        <mxCell id="gff2hpIQ6-8qm_smWflZ-38" style="edgeStyle=orthogonalEdgeStyle;rounded=0;orthogonalLoop=1;jettySize=auto;html=1;" parent="1" source="gff2hpIQ6-8qm_smWflZ-16" target="gff2hpIQ6-8qm_smWflZ-17" edge="1">
          <mxGeometry relative="1" as="geometry" />
        </mxCell>
        <mxCell id="gff2hpIQ6-8qm_smWflZ-16" value="" style="aspect=fixed;perimeter=ellipsePerimeter;html=1;align=center;shadow=0;dashed=0;spacingTop=3;image;image=img/lib/active_directory/generic_server.svg;" parent="1" vertex="1">
          <mxGeometry x="750" y="110.71000000000001" width="30" height="53.57" as="geometry" />
        </mxCell>
        <mxCell id="gff2hpIQ6-8qm_smWflZ-53" style="edgeStyle=orthogonalEdgeStyle;rounded=0;orthogonalLoop=1;jettySize=auto;html=1;entryX=1.021;entryY=0.051;entryDx=0;entryDy=0;entryPerimeter=0;" parent="1" source="gff2hpIQ6-8qm_smWflZ-17" target="gff2hpIQ6-8qm_smWflZ-2" edge="1">
          <mxGeometry relative="1" as="geometry" />
        </mxCell>
        <mxCell id="gff2hpIQ6-8qm_smWflZ-17" value="" style="shape=cylinder3;whiteSpace=wrap;html=1;boundedLbl=1;backgroundOutline=1;size=15;fillColor=#FFFBF5;direction=south;" parent="1" vertex="1">
          <mxGeometry x="414" y="115" width="246" height="45" as="geometry" />
        </mxCell>
        <mxCell id="gff2hpIQ6-8qm_smWflZ-21" value="Topic-A-05" style="ellipse;whiteSpace=wrap;html=1;aspect=fixed;fillColor=#B5739D;" parent="1" vertex="1">
          <mxGeometry x="420" y="117.5" width="40" height="40" as="geometry" />
        </mxCell>
        <mxCell id="gff2hpIQ6-8qm_smWflZ-22" value="Topic-A-04" style="ellipse;whiteSpace=wrap;html=1;aspect=fixed;fillColor=#B5739D;" parent="1" vertex="1">
          <mxGeometry x="460" y="117.5" width="40" height="40" as="geometry" />
        </mxCell>
        <mxCell id="gff2hpIQ6-8qm_smWflZ-23" value="Topic-A-03" style="ellipse;whiteSpace=wrap;html=1;aspect=fixed;fillColor=#B5739D;" parent="1" vertex="1">
          <mxGeometry x="500" y="117.5" width="40" height="40" as="geometry" />
        </mxCell>
        <mxCell id="gff2hpIQ6-8qm_smWflZ-24" value="Topic-A-02" style="ellipse;whiteSpace=wrap;html=1;aspect=fixed;fillColor=#B5739D;" parent="1" vertex="1">
          <mxGeometry x="540" y="117.5" width="40" height="40" as="geometry" />
        </mxCell>
        <mxCell id="gff2hpIQ6-8qm_smWflZ-25" value="Topic-A-01" style="ellipse;whiteSpace=wrap;html=1;aspect=fixed;fillColor=#B5739D;" parent="1" vertex="1">
          <mxGeometry x="580" y="117.5" width="40" height="40" as="geometry" />
        </mxCell>
        <mxCell id="gff2hpIQ6-8qm_smWflZ-50" style="edgeStyle=orthogonalEdgeStyle;rounded=0;orthogonalLoop=1;jettySize=auto;html=1;entryX=0.996;entryY=0.366;entryDx=0;entryDy=0;entryPerimeter=0;" parent="1" source="gff2hpIQ6-8qm_smWflZ-26" target="gff2hpIQ6-8qm_smWflZ-2" edge="1">
          <mxGeometry relative="1" as="geometry" />
        </mxCell>
        <mxCell id="gff2hpIQ6-8qm_smWflZ-26" value="" style="shape=cylinder3;whiteSpace=wrap;html=1;boundedLbl=1;backgroundOutline=1;size=15;fillColor=#FFFBF5;direction=south;" parent="1" vertex="1">
          <mxGeometry x="414" y="230" width="246" height="45" as="geometry" />
        </mxCell>
        <mxCell id="gff2hpIQ6-8qm_smWflZ-30" value="Topic-B-02" style="ellipse;whiteSpace=wrap;html=1;aspect=fixed;fillColor=#7EA6E0;" parent="1" vertex="1">
          <mxGeometry x="540" y="232.5" width="40" height="40" as="geometry" />
        </mxCell>
        <mxCell id="gff2hpIQ6-8qm_smWflZ-31" value="Topic-B-01" style="ellipse;whiteSpace=wrap;html=1;aspect=fixed;fillColor=#7EA6E0;" parent="1" vertex="1">
          <mxGeometry x="580" y="232.5" width="40" height="40" as="geometry" />
        </mxCell>
        <mxCell id="gff2hpIQ6-8qm_smWflZ-48" style="edgeStyle=orthogonalEdgeStyle;rounded=0;orthogonalLoop=1;jettySize=auto;html=1;entryX=1.004;entryY=0.645;entryDx=0;entryDy=0;entryPerimeter=0;" parent="1" source="gff2hpIQ6-8qm_smWflZ-32" target="gff2hpIQ6-8qm_smWflZ-2" edge="1">
          <mxGeometry relative="1" as="geometry">
            <mxPoint x="370" y="352.5" as="targetPoint" />
          </mxGeometry>
        </mxCell>
        <mxCell id="gff2hpIQ6-8qm_smWflZ-32" value="" style="shape=cylinder3;whiteSpace=wrap;html=1;boundedLbl=1;backgroundOutline=1;size=15;fillColor=#FFFBF5;direction=south;" parent="1" vertex="1">
          <mxGeometry x="414" y="330" width="246" height="45" as="geometry" />
        </mxCell>
        <mxCell id="gff2hpIQ6-8qm_smWflZ-35" value="Topic-C-03" style="ellipse;whiteSpace=wrap;html=1;aspect=fixed;fillColor=#FFCCFF;" parent="1" vertex="1">
          <mxGeometry x="500" y="332.5" width="40" height="40" as="geometry" />
        </mxCell>
        <mxCell id="gff2hpIQ6-8qm_smWflZ-36" value="Topic-C-02" style="ellipse;whiteSpace=wrap;html=1;aspect=fixed;fillColor=#FFCCFF;" parent="1" vertex="1">
          <mxGeometry x="540" y="332.5" width="40" height="40" as="geometry" />
        </mxCell>
        <mxCell id="gff2hpIQ6-8qm_smWflZ-37" value="Topic-C-01" style="ellipse;whiteSpace=wrap;html=1;aspect=fixed;fillColor=#FFCCFF;" parent="1" vertex="1">
          <mxGeometry x="580" y="332.5" width="40" height="40" as="geometry" />
        </mxCell>
        <mxCell id="gff2hpIQ6-8qm_smWflZ-39" style="edgeStyle=orthogonalEdgeStyle;rounded=0;orthogonalLoop=1;jettySize=auto;html=1;" parent="1" source="gff2hpIQ6-8qm_smWflZ-40" edge="1">
          <mxGeometry relative="1" as="geometry">
            <mxPoint x="660" y="252.495" as="targetPoint" />
          </mxGeometry>
        </mxCell>
        <mxCell id="gff2hpIQ6-8qm_smWflZ-40" value="" style="aspect=fixed;perimeter=ellipsePerimeter;html=1;align=center;shadow=0;dashed=0;spacingTop=3;image;image=img/lib/active_directory/generic_server.svg;" parent="1" vertex="1">
          <mxGeometry x="750" y="225.71" width="30" height="53.57" as="geometry" />
        </mxCell>
        <mxCell id="gff2hpIQ6-8qm_smWflZ-41" style="edgeStyle=orthogonalEdgeStyle;rounded=0;orthogonalLoop=1;jettySize=auto;html=1;" parent="1" source="gff2hpIQ6-8qm_smWflZ-42" edge="1">
          <mxGeometry relative="1" as="geometry">
            <mxPoint x="660" y="353.21500000000003" as="targetPoint" />
          </mxGeometry>
        </mxCell>
        <mxCell id="gff2hpIQ6-8qm_smWflZ-42" value="" style="aspect=fixed;perimeter=ellipsePerimeter;html=1;align=center;shadow=0;dashed=0;spacingTop=3;image;image=img/lib/active_directory/generic_server.svg;" parent="1" vertex="1">
          <mxGeometry x="750" y="326.43" width="30" height="53.57" as="geometry" />
        </mxCell>
        <mxCell id="gff2hpIQ6-8qm_smWflZ-43" value="Consumer-A" style="text;html=1;align=center;verticalAlign=middle;resizable=0;points=[];autosize=1;strokeColor=none;fillColor=none;" parent="1" vertex="1">
          <mxGeometry x="720" y="170" width="80" height="20" as="geometry" />
        </mxCell>
        <mxCell id="gff2hpIQ6-8qm_smWflZ-44" value="Consumer-B" style="text;html=1;align=center;verticalAlign=middle;resizable=0;points=[];autosize=1;strokeColor=none;fillColor=none;" parent="1" vertex="1">
          <mxGeometry x="720" y="279.28" width="80" height="20" as="geometry" />
        </mxCell>
        <mxCell id="gff2hpIQ6-8qm_smWflZ-45" value="Consumer-C" style="text;html=1;align=center;verticalAlign=middle;resizable=0;points=[];autosize=1;strokeColor=none;fillColor=none;" parent="1" vertex="1">
          <mxGeometry x="720" y="390" width="80" height="20" as="geometry" />
        </mxCell>
        <mxCell id="gff2hpIQ6-8qm_smWflZ-54" value="Producer" style="text;html=1;align=center;verticalAlign=middle;resizable=0;points=[];autosize=1;strokeColor=none;fillColor=none;" parent="1" vertex="1">
          <mxGeometry x="195" y="110.71" width="60" height="20" as="geometry" />
        </mxCell>
        <mxCell id="gff2hpIQ6-8qm_smWflZ-58" style="edgeStyle=orthogonalEdgeStyle;rounded=0;orthogonalLoop=1;jettySize=auto;html=1;" parent="1" source="gff2hpIQ6-8qm_smWflZ-59" target="gff2hpIQ6-8qm_smWflZ-60" edge="1">
          <mxGeometry relative="1" as="geometry" />
        </mxCell>
        <mxCell id="gff2hpIQ6-8qm_smWflZ-59" value="" style="aspect=fixed;perimeter=ellipsePerimeter;html=1;align=center;shadow=0;dashed=0;spacingTop=3;image;image=img/lib/active_directory/generic_server.svg;" parent="1" vertex="1">
          <mxGeometry x="1055" y="74.28" width="30" height="53.57" as="geometry" />
        </mxCell>
        <mxCell id="gff2hpIQ6-8qm_smWflZ-60" value="" style="rounded=0;whiteSpace=wrap;html=1;fillColor=#FFFBF5;" parent="1" vertex="1">
          <mxGeometry x="1125" y="144.28" width="80" height="360" as="geometry" />
        </mxCell>
        <mxCell id="gff2hpIQ6-8qm_smWflZ-61" value="Topic-A-01" style="rounded=1;whiteSpace=wrap;html=1;fillColor=#FF9999;" parent="1" vertex="1">
          <mxGeometry x="1130" y="474.28" width="70" height="20" as="geometry" />
        </mxCell>
        <mxCell id="gff2hpIQ6-8qm_smWflZ-62" value="Topic-B-01" style="rounded=1;whiteSpace=wrap;html=1;fillColor=#FF9999;" parent="1" vertex="1">
          <mxGeometry x="1130" y="444.28" width="70" height="20" as="geometry" />
        </mxCell>
        <mxCell id="gff2hpIQ6-8qm_smWflZ-63" value="Topic-C-01" style="rounded=1;whiteSpace=wrap;html=1;fillColor=#FF9999;" parent="1" vertex="1">
          <mxGeometry x="1130" y="414.28" width="70" height="20" as="geometry" />
        </mxCell>
        <mxCell id="gff2hpIQ6-8qm_smWflZ-64" value="Topic-A-02" style="rounded=1;whiteSpace=wrap;html=1;fillColor=#FF9999;" parent="1" vertex="1">
          <mxGeometry x="1130" y="384.28" width="70" height="20" as="geometry" />
        </mxCell>
        <mxCell id="gff2hpIQ6-8qm_smWflZ-65" value="Topic-B-02" style="rounded=1;whiteSpace=wrap;html=1;fillColor=#FF9999;" parent="1" vertex="1">
          <mxGeometry x="1130" y="354.28" width="70" height="20" as="geometry" />
        </mxCell>
        <mxCell id="gff2hpIQ6-8qm_smWflZ-66" value="Topic-C-02" style="rounded=1;whiteSpace=wrap;html=1;fillColor=#FF9999;" parent="1" vertex="1">
          <mxGeometry x="1130" y="324.28" width="70" height="20" as="geometry" />
        </mxCell>
        <mxCell id="gff2hpIQ6-8qm_smWflZ-67" value="Topic-C-03" style="rounded=1;whiteSpace=wrap;html=1;fillColor=#FF9999;" parent="1" vertex="1">
          <mxGeometry x="1130" y="294.28" width="70" height="20" as="geometry" />
        </mxCell>
        <mxCell id="gff2hpIQ6-8qm_smWflZ-68" value="Topic-A-03" style="rounded=1;whiteSpace=wrap;html=1;fillColor=#FF9999;" parent="1" vertex="1">
          <mxGeometry x="1130" y="264.28" width="70" height="20" as="geometry" />
        </mxCell>
        <mxCell id="gff2hpIQ6-8qm_smWflZ-69" value="Topic-A-04" style="rounded=1;whiteSpace=wrap;html=1;fillColor=#FF9999;" parent="1" vertex="1">
          <mxGeometry x="1130" y="234.27999999999997" width="70" height="20" as="geometry" />
        </mxCell>
        <mxCell id="gff2hpIQ6-8qm_smWflZ-70" value="Topic-A-05" style="rounded=1;whiteSpace=wrap;html=1;fillColor=#FF9999;" parent="1" vertex="1">
          <mxGeometry x="1130" y="204.28" width="70" height="20" as="geometry" />
        </mxCell>
        <mxCell id="gff2hpIQ6-8qm_smWflZ-71" style="edgeStyle=orthogonalEdgeStyle;rounded=0;orthogonalLoop=1;jettySize=auto;html=1;" parent="1" source="gff2hpIQ6-8qm_smWflZ-72" target="gff2hpIQ6-8qm_smWflZ-74" edge="1">
          <mxGeometry relative="1" as="geometry" />
        </mxCell>
        <mxCell id="gff2hpIQ6-8qm_smWflZ-72" value="" style="aspect=fixed;perimeter=ellipsePerimeter;html=1;align=center;shadow=0;dashed=0;spacingTop=3;image;image=img/lib/active_directory/generic_server.svg;" parent="1" vertex="1">
          <mxGeometry x="1593.32" y="151.07" width="30" height="53.57" as="geometry" />
        </mxCell>
        <mxCell id="gff2hpIQ6-8qm_smWflZ-131" style="edgeStyle=orthogonalEdgeStyle;rounded=0;orthogonalLoop=1;jettySize=auto;html=1;" parent="1" source="gff2hpIQ6-8qm_smWflZ-74" edge="1">
          <mxGeometry relative="1" as="geometry">
            <mxPoint x="1210" y="177.86" as="targetPoint" />
          </mxGeometry>
        </mxCell>
        <mxCell id="gff2hpIQ6-8qm_smWflZ-74" value="" style="shape=cylinder3;whiteSpace=wrap;html=1;boundedLbl=1;backgroundOutline=1;size=15;fillColor=#FFFBF5;direction=south;" parent="1" vertex="1">
          <mxGeometry x="1257.32" y="155.35999999999999" width="246" height="45" as="geometry" />
        </mxCell>
        <mxCell id="gff2hpIQ6-8qm_smWflZ-77" value="Topic-A-03" style="ellipse;whiteSpace=wrap;html=1;aspect=fixed;fillColor=#B5739D;" parent="1" vertex="1">
          <mxGeometry x="1430" y="157.85999999999999" width="40" height="40" as="geometry" />
        </mxCell>
        <mxCell id="gff2hpIQ6-8qm_smWflZ-93" value="Consumer-A-1" style="text;html=1;align=center;verticalAlign=middle;resizable=0;points=[];autosize=1;strokeColor=none;fillColor=none;" parent="1" vertex="1">
          <mxGeometry x="1626" y="167.49999999999997" width="90" height="20" as="geometry" />
        </mxCell>
        <mxCell id="gff2hpIQ6-8qm_smWflZ-96" value="Producer" style="text;html=1;align=center;verticalAlign=middle;resizable=0;points=[];autosize=1;strokeColor=none;fillColor=none;" parent="1" vertex="1">
          <mxGeometry x="1040" y="134.98999999999998" width="60" height="20" as="geometry" />
        </mxCell>
        <mxCell id="gff2hpIQ6-8qm_smWflZ-98" style="edgeStyle=orthogonalEdgeStyle;rounded=0;orthogonalLoop=1;jettySize=auto;html=1;" parent="1" source="gff2hpIQ6-8qm_smWflZ-99" target="gff2hpIQ6-8qm_smWflZ-101" edge="1">
          <mxGeometry relative="1" as="geometry" />
        </mxCell>
        <mxCell id="gff2hpIQ6-8qm_smWflZ-99" value="" style="aspect=fixed;perimeter=ellipsePerimeter;html=1;align=center;shadow=0;dashed=0;spacingTop=3;image;image=img/lib/active_directory/generic_server.svg;" parent="1" vertex="1">
          <mxGeometry x="1593.32" y="228.21" width="30" height="53.57" as="geometry" />
        </mxCell>
        <mxCell id="gff2hpIQ6-8qm_smWflZ-130" style="edgeStyle=orthogonalEdgeStyle;rounded=0;orthogonalLoop=1;jettySize=auto;html=1;" parent="1" source="gff2hpIQ6-8qm_smWflZ-101" edge="1">
          <mxGeometry relative="1" as="geometry">
            <mxPoint x="1210" y="255" as="targetPoint" />
          </mxGeometry>
        </mxCell>
        <mxCell id="gff2hpIQ6-8qm_smWflZ-101" value="" style="shape=cylinder3;whiteSpace=wrap;html=1;boundedLbl=1;backgroundOutline=1;size=15;fillColor=#FFFBF5;direction=south;" parent="1" vertex="1">
          <mxGeometry x="1257.32" y="232.5" width="246" height="45" as="geometry" />
        </mxCell>
        <mxCell id="gff2hpIQ6-8qm_smWflZ-102" value="Topic-A-05" style="ellipse;whiteSpace=wrap;html=1;aspect=fixed;fillColor=#B5739D;" parent="1" vertex="1">
          <mxGeometry x="1390" y="234.99" width="40" height="40" as="geometry" />
        </mxCell>
        <mxCell id="gff2hpIQ6-8qm_smWflZ-105" value="Topic-A-02" style="ellipse;whiteSpace=wrap;html=1;aspect=fixed;fillColor=#B5739D;" parent="1" vertex="1">
          <mxGeometry x="1430" y="235" width="40" height="40" as="geometry" />
        </mxCell>
        <mxCell id="gff2hpIQ6-8qm_smWflZ-107" value="Consumer-A-2" style="text;html=1;align=center;verticalAlign=middle;resizable=0;points=[];autosize=1;strokeColor=none;fillColor=none;" parent="1" vertex="1">
          <mxGeometry x="1626" y="243.21999999999997" width="90" height="20" as="geometry" />
        </mxCell>
        <mxCell id="gff2hpIQ6-8qm_smWflZ-109" style="edgeStyle=orthogonalEdgeStyle;rounded=0;orthogonalLoop=1;jettySize=auto;html=1;" parent="1" source="gff2hpIQ6-8qm_smWflZ-110" target="gff2hpIQ6-8qm_smWflZ-111" edge="1">
          <mxGeometry relative="1" as="geometry" />
        </mxCell>
        <mxCell id="gff2hpIQ6-8qm_smWflZ-110" value="" style="aspect=fixed;perimeter=ellipsePerimeter;html=1;align=center;shadow=0;dashed=0;spacingTop=3;image;image=img/lib/active_directory/generic_server.svg;" parent="1" vertex="1">
          <mxGeometry x="1593.32" y="318.93000000000006" width="30" height="53.57" as="geometry" />
        </mxCell>
        <mxCell id="gff2hpIQ6-8qm_smWflZ-129" style="edgeStyle=orthogonalEdgeStyle;rounded=0;orthogonalLoop=1;jettySize=auto;html=1;" parent="1" source="gff2hpIQ6-8qm_smWflZ-111" edge="1">
          <mxGeometry relative="1" as="geometry">
            <mxPoint x="1210" y="345.72" as="targetPoint" />
          </mxGeometry>
        </mxCell>
        <mxCell id="gff2hpIQ6-8qm_smWflZ-111" value="" style="shape=cylinder3;whiteSpace=wrap;html=1;boundedLbl=1;backgroundOutline=1;size=15;fillColor=#FFFBF5;direction=south;" parent="1" vertex="1">
          <mxGeometry x="1257.32" y="323.22" width="246" height="45" as="geometry" />
        </mxCell>
        <mxCell id="gff2hpIQ6-8qm_smWflZ-113" value="Topic-A-04" style="ellipse;whiteSpace=wrap;html=1;aspect=fixed;fillColor=#B5739D;" parent="1" vertex="1">
          <mxGeometry x="1390" y="325.72" width="40" height="40" as="geometry" />
        </mxCell>
        <mxCell id="gff2hpIQ6-8qm_smWflZ-116" value="Topic-A-01" style="ellipse;whiteSpace=wrap;html=1;aspect=fixed;fillColor=#B5739D;" parent="1" vertex="1">
          <mxGeometry x="1430" y="325.72" width="40" height="40" as="geometry" />
        </mxCell>
        <mxCell id="gff2hpIQ6-8qm_smWflZ-117" value="Consumer-A-3" style="text;html=1;align=center;verticalAlign=middle;resizable=0;points=[];autosize=1;strokeColor=none;fillColor=none;" parent="1" vertex="1">
          <mxGeometry x="1626" y="333.22" width="90" height="20" as="geometry" />
        </mxCell>
        <mxCell id="gff2hpIQ6-8qm_smWflZ-132" value="Queue-A-01" style="text;html=1;align=center;verticalAlign=middle;resizable=0;points=[];autosize=1;strokeColor=none;fillColor=none;" parent="1" vertex="1">
          <mxGeometry x="1280" y="335.72" width="80" height="20" as="geometry" />
        </mxCell>
        <mxCell id="gff2hpIQ6-8qm_smWflZ-133" value="Queue-A-02" style="text;html=1;align=center;verticalAlign=middle;resizable=0;points=[];autosize=1;strokeColor=none;fillColor=none;" parent="1" vertex="1">
          <mxGeometry x="1280" y="245.00000000000003" width="80" height="20" as="geometry" />
        </mxCell>
        <mxCell id="gff2hpIQ6-8qm_smWflZ-134" value="Queue-A-03" style="text;html=1;align=center;verticalAlign=middle;resizable=0;points=[];autosize=1;strokeColor=none;fillColor=none;" parent="1" vertex="1">
          <mxGeometry x="1280" y="167.86" width="80" height="20" as="geometry" />
        </mxCell>
        <mxCell id="FFstnjiT_gx-RpRVAEiZ-1" style="edgeStyle=orthogonalEdgeStyle;rounded=0;orthogonalLoop=1;jettySize=auto;html=1;" edge="1" parent="1" source="FFstnjiT_gx-RpRVAEiZ-2" target="FFstnjiT_gx-RpRVAEiZ-3">
          <mxGeometry relative="1" as="geometry" />
        </mxCell>
        <mxCell id="FFstnjiT_gx-RpRVAEiZ-2" value="" style="aspect=fixed;perimeter=ellipsePerimeter;html=1;align=center;shadow=0;dashed=0;spacingTop=3;image;image=img/lib/active_directory/generic_server.svg;" vertex="1" parent="1">
          <mxGeometry x="345" y="720" width="30" height="53.57" as="geometry" />
        </mxCell>
        <mxCell id="FFstnjiT_gx-RpRVAEiZ-3" value="" style="rounded=0;whiteSpace=wrap;html=1;fillColor=#FFFBF5;" vertex="1" parent="1">
          <mxGeometry x="415" y="790" width="80" height="360" as="geometry" />
        </mxCell>
        <mxCell id="FFstnjiT_gx-RpRVAEiZ-4" value="Topic-A-01" style="rounded=1;whiteSpace=wrap;html=1;fillColor=#FF9999;" vertex="1" parent="1">
          <mxGeometry x="420" y="1120" width="70" height="20" as="geometry" />
        </mxCell>
        <mxCell id="FFstnjiT_gx-RpRVAEiZ-5" value="Topic-B-01" style="rounded=1;whiteSpace=wrap;html=1;fillColor=#FF9999;" vertex="1" parent="1">
          <mxGeometry x="420" y="1090" width="70" height="20" as="geometry" />
        </mxCell>
        <mxCell id="FFstnjiT_gx-RpRVAEiZ-6" value="Topic-C-01" style="rounded=1;whiteSpace=wrap;html=1;fillColor=#FF9999;" vertex="1" parent="1">
          <mxGeometry x="420" y="1060" width="70" height="20" as="geometry" />
        </mxCell>
        <mxCell id="FFstnjiT_gx-RpRVAEiZ-7" value="Topic-A-02" style="rounded=1;whiteSpace=wrap;html=1;fillColor=#FF9999;" vertex="1" parent="1">
          <mxGeometry x="420" y="1030" width="70" height="20" as="geometry" />
        </mxCell>
        <mxCell id="FFstnjiT_gx-RpRVAEiZ-8" value="Topic-B-02" style="rounded=1;whiteSpace=wrap;html=1;fillColor=#FF9999;" vertex="1" parent="1">
          <mxGeometry x="420" y="1000" width="70" height="20" as="geometry" />
        </mxCell>
        <mxCell id="FFstnjiT_gx-RpRVAEiZ-9" value="Topic-C-02" style="rounded=1;whiteSpace=wrap;html=1;fillColor=#FF9999;" vertex="1" parent="1">
          <mxGeometry x="420" y="970" width="70" height="20" as="geometry" />
        </mxCell>
        <mxCell id="FFstnjiT_gx-RpRVAEiZ-10" value="Topic-C-03" style="rounded=1;whiteSpace=wrap;html=1;fillColor=#FF9999;" vertex="1" parent="1">
          <mxGeometry x="420" y="940" width="70" height="20" as="geometry" />
        </mxCell>
        <mxCell id="FFstnjiT_gx-RpRVAEiZ-11" value="Topic-A-03" style="rounded=1;whiteSpace=wrap;html=1;fillColor=#FF9999;" vertex="1" parent="1">
          <mxGeometry x="420" y="910" width="70" height="20" as="geometry" />
        </mxCell>
        <mxCell id="FFstnjiT_gx-RpRVAEiZ-12" value="Topic-A-04" style="rounded=1;whiteSpace=wrap;html=1;fillColor=#FF9999;" vertex="1" parent="1">
          <mxGeometry x="420" y="880" width="70" height="20" as="geometry" />
        </mxCell>
        <mxCell id="FFstnjiT_gx-RpRVAEiZ-13" value="Topic-A-05" style="rounded=1;whiteSpace=wrap;html=1;fillColor=#FF9999;" vertex="1" parent="1">
          <mxGeometry x="420" y="850" width="70" height="20" as="geometry" />
        </mxCell>
        <mxCell id="FFstnjiT_gx-RpRVAEiZ-14" style="edgeStyle=orthogonalEdgeStyle;rounded=0;orthogonalLoop=1;jettySize=auto;html=1;" edge="1" parent="1" source="FFstnjiT_gx-RpRVAEiZ-15" target="FFstnjiT_gx-RpRVAEiZ-17">
          <mxGeometry relative="1" as="geometry" />
        </mxCell>
        <mxCell id="FFstnjiT_gx-RpRVAEiZ-15" value="" style="aspect=fixed;perimeter=ellipsePerimeter;html=1;align=center;shadow=0;dashed=0;spacingTop=3;image;image=img/lib/active_directory/generic_server.svg;" vertex="1" parent="1">
          <mxGeometry x="885" y="780.71" width="30" height="53.57" as="geometry" />
        </mxCell>
        <mxCell id="FFstnjiT_gx-RpRVAEiZ-16" style="edgeStyle=orthogonalEdgeStyle;rounded=0;orthogonalLoop=1;jettySize=auto;html=1;entryX=1.021;entryY=0.051;entryDx=0;entryDy=0;entryPerimeter=0;" edge="1" parent="1" source="FFstnjiT_gx-RpRVAEiZ-17" target="FFstnjiT_gx-RpRVAEiZ-3">
          <mxGeometry relative="1" as="geometry" />
        </mxCell>
        <mxCell id="FFstnjiT_gx-RpRVAEiZ-17" value="" style="shape=cylinder3;whiteSpace=wrap;html=1;boundedLbl=1;backgroundOutline=1;size=15;fillColor=#FFFBF5;direction=south;" vertex="1" parent="1">
          <mxGeometry x="549" y="785" width="246" height="45" as="geometry" />
        </mxCell>
        <mxCell id="FFstnjiT_gx-RpRVAEiZ-18" value="Topic-A-05" style="ellipse;whiteSpace=wrap;html=1;aspect=fixed;fillColor=#B5739D;" vertex="1" parent="1">
          <mxGeometry x="555" y="787.5" width="40" height="40" as="geometry" />
        </mxCell>
        <mxCell id="FFstnjiT_gx-RpRVAEiZ-19" value="Topic-A-04" style="ellipse;whiteSpace=wrap;html=1;aspect=fixed;fillColor=#B5739D;" vertex="1" parent="1">
          <mxGeometry x="595" y="787.5" width="40" height="40" as="geometry" />
        </mxCell>
        <mxCell id="FFstnjiT_gx-RpRVAEiZ-20" value="Topic-A-03" style="ellipse;whiteSpace=wrap;html=1;aspect=fixed;fillColor=#B5739D;" vertex="1" parent="1">
          <mxGeometry x="635" y="787.5" width="40" height="40" as="geometry" />
        </mxCell>
        <mxCell id="FFstnjiT_gx-RpRVAEiZ-21" value="Topic-A-02" style="ellipse;whiteSpace=wrap;html=1;aspect=fixed;fillColor=#B5739D;" vertex="1" parent="1">
          <mxGeometry x="675" y="787.5" width="40" height="40" as="geometry" />
        </mxCell>
        <mxCell id="FFstnjiT_gx-RpRVAEiZ-22" value="Topic-A-01" style="ellipse;whiteSpace=wrap;html=1;aspect=fixed;fillColor=#B5739D;" vertex="1" parent="1">
          <mxGeometry x="715" y="787.5" width="40" height="40" as="geometry" />
        </mxCell>
        <mxCell id="FFstnjiT_gx-RpRVAEiZ-23" style="edgeStyle=orthogonalEdgeStyle;rounded=0;orthogonalLoop=1;jettySize=auto;html=1;entryX=0.996;entryY=0.366;entryDx=0;entryDy=0;entryPerimeter=0;" edge="1" parent="1" source="FFstnjiT_gx-RpRVAEiZ-24" target="FFstnjiT_gx-RpRVAEiZ-3">
          <mxGeometry relative="1" as="geometry" />
        </mxCell>
        <mxCell id="FFstnjiT_gx-RpRVAEiZ-24" value="" style="shape=cylinder3;whiteSpace=wrap;html=1;boundedLbl=1;backgroundOutline=1;size=15;fillColor=#FFFBF5;direction=south;" vertex="1" parent="1">
          <mxGeometry x="549" y="900" width="246" height="45" as="geometry" />
        </mxCell>
        <mxCell id="FFstnjiT_gx-RpRVAEiZ-25" value="Topic-B-02" style="ellipse;whiteSpace=wrap;html=1;aspect=fixed;fillColor=#7EA6E0;" vertex="1" parent="1">
          <mxGeometry x="675" y="902.5" width="40" height="40" as="geometry" />
        </mxCell>
        <mxCell id="FFstnjiT_gx-RpRVAEiZ-26" value="Topic-B-01" style="ellipse;whiteSpace=wrap;html=1;aspect=fixed;fillColor=#7EA6E0;" vertex="1" parent="1">
          <mxGeometry x="715" y="902.5" width="40" height="40" as="geometry" />
        </mxCell>
        <mxCell id="FFstnjiT_gx-RpRVAEiZ-27" style="edgeStyle=orthogonalEdgeStyle;rounded=0;orthogonalLoop=1;jettySize=auto;html=1;entryX=1.004;entryY=0.645;entryDx=0;entryDy=0;entryPerimeter=0;" edge="1" parent="1" source="FFstnjiT_gx-RpRVAEiZ-28" target="FFstnjiT_gx-RpRVAEiZ-3">
          <mxGeometry relative="1" as="geometry">
            <mxPoint x="505" y="1022.5" as="targetPoint" />
          </mxGeometry>
        </mxCell>
        <mxCell id="FFstnjiT_gx-RpRVAEiZ-28" value="" style="shape=cylinder3;whiteSpace=wrap;html=1;boundedLbl=1;backgroundOutline=1;size=15;fillColor=#FFFBF5;direction=south;" vertex="1" parent="1">
          <mxGeometry x="549" y="1000" width="246" height="45" as="geometry" />
        </mxCell>
        <mxCell id="FFstnjiT_gx-RpRVAEiZ-29" value="Topic-C-03" style="ellipse;whiteSpace=wrap;html=1;aspect=fixed;fillColor=#FFCCFF;" vertex="1" parent="1">
          <mxGeometry x="635" y="1002.5" width="40" height="40" as="geometry" />
        </mxCell>
        <mxCell id="FFstnjiT_gx-RpRVAEiZ-30" value="Topic-C-02" style="ellipse;whiteSpace=wrap;html=1;aspect=fixed;fillColor=#FFCCFF;" vertex="1" parent="1">
          <mxGeometry x="675" y="1002.5" width="40" height="40" as="geometry" />
        </mxCell>
        <mxCell id="FFstnjiT_gx-RpRVAEiZ-31" value="Topic-C-01" style="ellipse;whiteSpace=wrap;html=1;aspect=fixed;fillColor=#FFCCFF;" vertex="1" parent="1">
          <mxGeometry x="715" y="1002.5" width="40" height="40" as="geometry" />
        </mxCell>
        <mxCell id="FFstnjiT_gx-RpRVAEiZ-32" style="edgeStyle=orthogonalEdgeStyle;rounded=0;orthogonalLoop=1;jettySize=auto;html=1;" edge="1" parent="1" source="FFstnjiT_gx-RpRVAEiZ-33">
          <mxGeometry relative="1" as="geometry">
            <mxPoint x="795" y="922.495" as="targetPoint" />
          </mxGeometry>
        </mxCell>
        <mxCell id="FFstnjiT_gx-RpRVAEiZ-33" value="" style="aspect=fixed;perimeter=ellipsePerimeter;html=1;align=center;shadow=0;dashed=0;spacingTop=3;image;image=img/lib/active_directory/generic_server.svg;" vertex="1" parent="1">
          <mxGeometry x="885" y="895.71" width="30" height="53.57" as="geometry" />
        </mxCell>
        <mxCell id="FFstnjiT_gx-RpRVAEiZ-34" style="edgeStyle=orthogonalEdgeStyle;rounded=0;orthogonalLoop=1;jettySize=auto;html=1;" edge="1" parent="1" source="FFstnjiT_gx-RpRVAEiZ-35">
          <mxGeometry relative="1" as="geometry">
            <mxPoint x="795" y="1023.215" as="targetPoint" />
          </mxGeometry>
        </mxCell>
        <mxCell id="FFstnjiT_gx-RpRVAEiZ-35" value="" style="aspect=fixed;perimeter=ellipsePerimeter;html=1;align=center;shadow=0;dashed=0;spacingTop=3;image;image=img/lib/active_directory/generic_server.svg;" vertex="1" parent="1">
          <mxGeometry x="885" y="996.4300000000001" width="30" height="53.57" as="geometry" />
        </mxCell>
        <mxCell id="FFstnjiT_gx-RpRVAEiZ-36" value="Consumer-A" style="text;html=1;align=center;verticalAlign=middle;resizable=0;points=[];autosize=1;strokeColor=none;fillColor=none;" vertex="1" parent="1">
          <mxGeometry x="855" y="840" width="80" height="20" as="geometry" />
        </mxCell>
        <mxCell id="FFstnjiT_gx-RpRVAEiZ-37" value="Consumer-B" style="text;html=1;align=center;verticalAlign=middle;resizable=0;points=[];autosize=1;strokeColor=none;fillColor=none;" vertex="1" parent="1">
          <mxGeometry x="855" y="949.28" width="80" height="20" as="geometry" />
        </mxCell>
        <mxCell id="FFstnjiT_gx-RpRVAEiZ-38" value="Consumer-C" style="text;html=1;align=center;verticalAlign=middle;resizable=0;points=[];autosize=1;strokeColor=none;fillColor=none;" vertex="1" parent="1">
          <mxGeometry x="855" y="1060" width="80" height="20" as="geometry" />
        </mxCell>
        <mxCell id="FFstnjiT_gx-RpRVAEiZ-39" value="Producer" style="text;html=1;align=center;verticalAlign=middle;resizable=0;points=[];autosize=1;strokeColor=none;fillColor=none;" vertex="1" parent="1">
          <mxGeometry x="330" y="780.71" width="60" height="20" as="geometry" />
        </mxCell>
        <mxCell id="FFstnjiT_gx-RpRVAEiZ-78" style="edgeStyle=orthogonalEdgeStyle;rounded=0;orthogonalLoop=1;jettySize=auto;html=1;exitX=0.5;exitY=1;exitDx=0;exitDy=0;exitPerimeter=0;" edge="1" parent="1" source="FFstnjiT_gx-RpRVAEiZ-54">
          <mxGeometry relative="1" as="geometry">
            <mxPoint x="1373" y="893.5" as="targetPoint" />
            <mxPoint x="1463" y="893.5" as="sourcePoint" />
          </mxGeometry>
        </mxCell>
        <mxCell id="FFstnjiT_gx-RpRVAEiZ-54" value="" style="shape=cylinder3;whiteSpace=wrap;html=1;boundedLbl=1;backgroundOutline=1;size=15;fillColor=#FFFBF5;direction=south;" vertex="1" parent="1">
          <mxGeometry x="1470" y="873.5" width="440" height="40" as="geometry" />
        </mxCell>
        <mxCell id="FFstnjiT_gx-RpRVAEiZ-55" value="Topic-A-09" style="ellipse;whiteSpace=wrap;html=1;aspect=fixed;fillColor=#B5739D;" vertex="1" parent="1">
          <mxGeometry x="1486" y="873" width="40" height="40" as="geometry" />
        </mxCell>
        <mxCell id="FFstnjiT_gx-RpRVAEiZ-56" value="Topic-A-08" style="ellipse;whiteSpace=wrap;html=1;aspect=fixed;fillColor=#B5739D;" vertex="1" parent="1">
          <mxGeometry x="1526" y="873" width="40" height="40" as="geometry" />
        </mxCell>
        <mxCell id="FFstnjiT_gx-RpRVAEiZ-57" value="Topic-A-07" style="ellipse;whiteSpace=wrap;html=1;aspect=fixed;fillColor=#97D077;" vertex="1" parent="1">
          <mxGeometry x="1566" y="873" width="40" height="40" as="geometry" />
        </mxCell>
        <mxCell id="FFstnjiT_gx-RpRVAEiZ-58" value="Topic-A-06" style="ellipse;whiteSpace=wrap;html=1;aspect=fixed;fillColor=#B5739D;" vertex="1" parent="1">
          <mxGeometry x="1606" y="873" width="40" height="40" as="geometry" />
        </mxCell>
        <mxCell id="FFstnjiT_gx-RpRVAEiZ-59" value="Topic-A-05" style="ellipse;whiteSpace=wrap;html=1;aspect=fixed;fillColor=#B5739D;" vertex="1" parent="1">
          <mxGeometry x="1646" y="873" width="40" height="40" as="geometry" />
        </mxCell>
        <mxCell id="FFstnjiT_gx-RpRVAEiZ-60" style="edgeStyle=orthogonalEdgeStyle;rounded=0;orthogonalLoop=1;jettySize=auto;html=1;" edge="1" parent="1" source="FFstnjiT_gx-RpRVAEiZ-61" target="FFstnjiT_gx-RpRVAEiZ-62">
          <mxGeometry relative="1" as="geometry" />
        </mxCell>
        <mxCell id="FFstnjiT_gx-RpRVAEiZ-61" value="" style="aspect=fixed;perimeter=ellipsePerimeter;html=1;align=center;shadow=0;dashed=0;spacingTop=3;image;image=img/lib/active_directory/generic_server.svg;" vertex="1" parent="1">
          <mxGeometry x="1220" y="663" width="30" height="53.57" as="geometry" />
        </mxCell>
        <mxCell id="FFstnjiT_gx-RpRVAEiZ-62" value="" style="rounded=0;whiteSpace=wrap;html=1;fillColor=#FFFBF5;" vertex="1" parent="1">
          <mxGeometry x="1290" y="733" width="80" height="360" as="geometry" />
        </mxCell>
        <mxCell id="FFstnjiT_gx-RpRVAEiZ-63" value="Topic-A-01" style="rounded=1;whiteSpace=wrap;html=1;fillColor=#FF9999;" vertex="1" parent="1">
          <mxGeometry x="1295" y="1063" width="70" height="20" as="geometry" />
        </mxCell>
        <mxCell id="FFstnjiT_gx-RpRVAEiZ-64" value="Topic-A-02" style="rounded=1;whiteSpace=wrap;html=1;fillColor=#FF9999;" vertex="1" parent="1">
          <mxGeometry x="1295" y="1033" width="70" height="20" as="geometry" />
        </mxCell>
        <mxCell id="FFstnjiT_gx-RpRVAEiZ-65" value="Topic-A-03" style="rounded=1;whiteSpace=wrap;html=1;fillColor=#FF9999;" vertex="1" parent="1">
          <mxGeometry x="1295" y="1003" width="70" height="20" as="geometry" />
        </mxCell>
        <mxCell id="FFstnjiT_gx-RpRVAEiZ-66" value="Topic-A-04" style="rounded=1;whiteSpace=wrap;html=1;fillColor=#FF9999;" vertex="1" parent="1">
          <mxGeometry x="1295" y="973" width="70" height="20" as="geometry" />
        </mxCell>
        <mxCell id="FFstnjiT_gx-RpRVAEiZ-67" value="Topic-A-05" style="rounded=1;whiteSpace=wrap;html=1;fillColor=#FF9999;" vertex="1" parent="1">
          <mxGeometry x="1295" y="943" width="70" height="20" as="geometry" />
        </mxCell>
        <mxCell id="FFstnjiT_gx-RpRVAEiZ-68" value="Topic-A-06" style="rounded=1;whiteSpace=wrap;html=1;fillColor=#FF9999;" vertex="1" parent="1">
          <mxGeometry x="1295" y="913" width="70" height="20" as="geometry" />
        </mxCell>
        <mxCell id="FFstnjiT_gx-RpRVAEiZ-69" value="Topic-A-07" style="rounded=1;whiteSpace=wrap;html=1;fillColor=#FF9999;" vertex="1" parent="1">
          <mxGeometry x="1295" y="883" width="70" height="20" as="geometry" />
        </mxCell>
        <mxCell id="FFstnjiT_gx-RpRVAEiZ-70" value="Topic-A-08" style="rounded=1;whiteSpace=wrap;html=1;fillColor=#FF9999;" vertex="1" parent="1">
          <mxGeometry x="1295" y="853" width="70" height="20" as="geometry" />
        </mxCell>
        <mxCell id="FFstnjiT_gx-RpRVAEiZ-71" value="Topic-A-09" style="rounded=1;whiteSpace=wrap;html=1;fillColor=#FF9999;" vertex="1" parent="1">
          <mxGeometry x="1295" y="823" width="70" height="20" as="geometry" />
        </mxCell>
        <mxCell id="FFstnjiT_gx-RpRVAEiZ-72" value="Topic-A-10" style="rounded=1;whiteSpace=wrap;html=1;fillColor=#FF9999;" vertex="1" parent="1">
          <mxGeometry x="1295" y="793" width="70" height="20" as="geometry" />
        </mxCell>
        <mxCell id="FFstnjiT_gx-RpRVAEiZ-73" value="Producer" style="text;html=1;align=center;verticalAlign=middle;resizable=0;points=[];autosize=1;strokeColor=none;fillColor=none;" vertex="1" parent="1">
          <mxGeometry x="1205" y="723.71" width="60" height="20" as="geometry" />
        </mxCell>
        <mxCell id="FFstnjiT_gx-RpRVAEiZ-74" value="Topic-A-04" style="ellipse;whiteSpace=wrap;html=1;aspect=fixed;fillColor=#7EA6E0;" vertex="1" parent="1">
          <mxGeometry x="1686" y="873" width="40" height="40" as="geometry" />
        </mxCell>
        <mxCell id="FFstnjiT_gx-RpRVAEiZ-75" value="Topic-A-03" style="ellipse;whiteSpace=wrap;html=1;aspect=fixed;fillColor=#B5739D;" vertex="1" parent="1">
          <mxGeometry x="1726" y="873.5" width="40" height="40" as="geometry" />
        </mxCell>
        <mxCell id="FFstnjiT_gx-RpRVAEiZ-76" value="Topic-A-02" style="ellipse;whiteSpace=wrap;html=1;aspect=fixed;fillColor=#B5739D;" vertex="1" parent="1">
          <mxGeometry x="1766" y="873.5" width="40" height="40" as="geometry" />
        </mxCell>
        <mxCell id="FFstnjiT_gx-RpRVAEiZ-77" value="Topic-A-01" style="ellipse;whiteSpace=wrap;html=1;aspect=fixed;fillColor=#B5739D;" vertex="1" parent="1">
          <mxGeometry x="1806" y="873.5" width="40" height="40" as="geometry" />
        </mxCell>
        <mxCell id="FFstnjiT_gx-RpRVAEiZ-79" value="" style="aspect=fixed;perimeter=ellipsePerimeter;html=1;align=center;shadow=0;dashed=0;spacingTop=3;image;image=img/lib/active_directory/generic_server.svg;" vertex="1" parent="1">
          <mxGeometry x="2010" y="715.85" width="30" height="53.57" as="geometry" />
        </mxCell>
        <mxCell id="FFstnjiT_gx-RpRVAEiZ-80" value="" style="aspect=fixed;perimeter=ellipsePerimeter;html=1;align=center;shadow=0;dashed=0;spacingTop=3;image;image=img/lib/active_directory/generic_server.svg;" vertex="1" parent="1">
          <mxGeometry x="2010" y="956.4300000000001" width="30" height="53.57" as="geometry" />
        </mxCell>
        <mxCell id="FFstnjiT_gx-RpRVAEiZ-81" value="Consumer-A-01" style="text;html=1;align=center;verticalAlign=middle;resizable=0;points=[];autosize=1;strokeColor=none;fillColor=none;" vertex="1" parent="1">
          <mxGeometry x="1970" y="775.14" width="100" height="20" as="geometry" />
        </mxCell>
        <mxCell id="FFstnjiT_gx-RpRVAEiZ-82" value="Consumer-B-01" style="text;html=1;align=center;verticalAlign=middle;resizable=0;points=[];autosize=1;strokeColor=none;fillColor=none;" vertex="1" parent="1">
          <mxGeometry x="1970" y="1010" width="100" height="20" as="geometry" />
        </mxCell>
        <mxCell id="FFstnjiT_gx-RpRVAEiZ-86" value="Consumer-A-group" style="text;html=1;align=center;verticalAlign=middle;resizable=0;points=[];autosize=1;strokeColor=none;fillColor=none;" vertex="1" parent="1">
          <mxGeometry x="1960" y="820" width="120" height="20" as="geometry" />
        </mxCell>
        <mxCell id="FFstnjiT_gx-RpRVAEiZ-92" value="consumer-A-offset" style="text;html=1;align=center;verticalAlign=middle;resizable=0;points=[];autosize=1;strokeColor=none;fillColor=none;" vertex="1" parent="1">
          <mxGeometry x="1654" y="925" width="110" height="20" as="geometry" />
        </mxCell>
        <mxCell id="FFstnjiT_gx-RpRVAEiZ-93" value="consumer-B-offset" style="text;html=1;align=center;verticalAlign=middle;resizable=0;points=[];autosize=1;strokeColor=none;fillColor=none;" vertex="1" parent="1">
          <mxGeometry x="1531" y="830" width="110" height="20" as="geometry" />
        </mxCell>
        <mxCell id="FFstnjiT_gx-RpRVAEiZ-94" value="Consumer-B-group" style="text;html=1;align=center;verticalAlign=middle;resizable=0;points=[];autosize=1;strokeColor=none;fillColor=none;" vertex="1" parent="1">
          <mxGeometry x="1961.25" y="1053" width="120" height="20" as="geometry" />
        </mxCell>
        <mxCell id="FFstnjiT_gx-RpRVAEiZ-95" value="minOffset" style="text;html=1;align=center;verticalAlign=middle;resizable=0;points=[];autosize=1;strokeColor=none;fillColor=none;" vertex="1" parent="1">
          <mxGeometry x="1551" y="797.5" width="70" height="20" as="geometry" />
        </mxCell>
      </root>
    </mxGraphModel>
  </diagram>
</mxfile>
